<?xml version="1.0" standalone="no"?>
<!DOCTYPE svg PUBLIC "-//W3C//DTD SVG 20010904//EN"
 "http://www.w3.org/TR/2001/REC-SVG-20010904/DTD/svg10.dtd">
<svg version="1.0" xmlns="http://www.w3.org/2000/svg"
 width="512.000000pt" height="512.000000pt" viewBox="0 0 512.000000 512.000000"
 preserveAspectRatio="xMidYMid meet">

<g transform="translate(0.000000,512.000000) scale(0.100000,-0.100000)"
fill="#000000" stroke="none">
<path d="M2426 4949 c-483 -56 -859 -359 -999 -805 -131 -414 -58 -809 208
-1141 168 -210 416 -358 700 -418 97 -21 330 -24 425 -6 254 48 469 160 645
336 185 184 297 403 340 665 50 294 -41 662 -223 906 -248 333 -672 513 -1096
463z m321 -164 c403 -76 715 -367 820 -764 22 -80 26 -120 27 -236 2 -236 -55
-432 -181 -622 -50 -77 -173 -200 -252 -253 -322 -216 -760 -239 -1104 -57
-289 153 -473 430 -523 786 -15 107 -16 138 -6 232 38 337 218 614 516 793 80
48 202 94 306 117 107 22 290 24 397 4z"/>
<path d="M2396 4624 c-209 -41 -402 -153 -518 -301 -128 -163 -188 -342 -188
-559 0 -138 19 -241 65 -347 132 -309 375 -485 727 -527 476 -56 922 322 955
810 5 77 3 88 -17 113 -49 61 -140 19 -140 -65 0 -80 -37 -226 -79 -311 -66
-136 -172 -243 -307 -311 -101 -50 -172 -67 -304 -73 -95 -4 -131 -1 -204 16
-234 56 -426 229 -500 451 -68 205 -57 381 36 570 57 117 186 248 305 309 94
48 212 81 289 81 64 0 98 14 113 47 16 35 14 57 -10 87 -19 24 -26 26 -87 25
-37 0 -98 -7 -136 -15z"/>
<path d="M3058 4293 c-18 -16 -111 -94 -205 -175 l-173 -147 -35 15 c-80 33
-188 9 -253 -57 -67 -68 -85 -140 -58 -232 32 -109 110 -167 226 -167 80 0
132 22 182 78 46 51 62 107 54 187 l-7 60 177 150 c223 188 234 200 234 234 0
76 -79 105 -142 54z m-443 -478 c43 -42 30 -104 -25 -124 -53 -18 -110 21
-110 77 0 33 43 72 80 72 19 0 40 -9 55 -25z"/>
<path d="M980 3679 c-134 -21 -312 -97 -426 -182 -70 -54 -187 -173 -233 -240
-50 -73 -119 -225 -140 -309 -27 -105 -35 -227 -22 -321 19 -137 418 -1792
450 -1868 55 -130 109 -209 215 -314 142 -141 289 -222 476 -262 80 -17 160
-18 1275 -18 l1190 0 95 26 c326 90 561 307 671 619 30 84 419 1724 430 1815
28 210 -32 445 -162 636 -124 183 -331 332 -540 388 -160 44 -355 49 -399 12
-32 -26 -36 -73 -8 -105 23 -27 27 -28 143 -31 248 -8 433 -90 598 -265 157
-167 238 -409 208 -623 -13 -89 -392 -1692 -422 -1782 -80 -239 -292 -433
-554 -507 l-80 -23 -1120 -3 c-749 -2 -1151 0 -1212 7 -215 25 -401 125 -535
287 -53 64 -116 180 -142 259 -8 28 -106 430 -217 895 -198 828 -202 847 -202
955 -1 162 42 301 134 437 158 233 389 358 660 358 118 0 151 9 168 47 16 36
13 59 -11 88 -21 24 -30 26 -123 30 -55 2 -129 -1 -165 -6z"/>
<path d="M1468 2710 c-408 -86 -637 -258 -713 -536 -36 -134 -30 -378 17 -593
110 -516 338 -911 599 -1040 247 -122 529 -83 708 98 74 74 113 139 136 226
37 143 8 257 -102 407 -78 104 -97 157 -98 263 0 81 3 97 31 155 17 36 54 93
83 128 98 121 138 216 148 347 7 101 -8 174 -54 267 -69 137 -198 237 -359
278 -101 26 -274 26 -396 0z m434 -183 c88 -43 147 -102 187 -187 22 -46 26
-69 26 -145 0 -80 -3 -97 -31 -155 -18 -36 -57 -96 -88 -135 -182 -224 -193
-474 -30 -701 85 -118 98 -148 98 -230 1 -62 -3 -80 -34 -139 -67 -132 -192
-198 -370 -199 -134 -1 -234 41 -345 146 -158 147 -295 431 -370 762 -94 420
-69 644 89 801 71 70 144 111 277 156 160 54 249 69 390 66 123 -2 127 -3 201
-40z"/>
<path d="M1243 2323 c-74 -41 -156 -139 -194 -234 -27 -67 -36 -202 -20 -281
19 -92 80 -124 137 -74 24 20 27 30 24 62 -2 22 -4 77 -4 124 -1 111 21 161
109 244 52 49 65 68 65 91 -1 34 -15 56 -47 73 -28 16 -32 15 -70 -5z"/>
<path d="M1102 1630 c-29 -27 -28 -63 3 -164 29 -93 32 -99 63 -115 49 -26
112 12 112 67 0 44 -51 197 -72 215 -27 23 -79 22 -106 -3z"/>
<path d="M3265 2714 c-141 -35 -284 -136 -349 -246 -62 -106 -87 -238 -67
-354 20 -114 60 -192 171 -334 85 -110 112 -244 71 -362 -10 -30 -48 -98 -83
-149 -69 -101 -94 -160 -108 -252 -44 -293 251 -566 587 -544 385 26 694 387
833 972 52 222 65 318 65 495 0 188 -12 249 -71 366 -92 185 -270 303 -581
385 -101 27 -139 32 -263 35 -106 3 -161 -1 -205 -12z m353 -160 c100 -20 264
-75 340 -113 71 -36 164 -118 197 -176 98 -166 99 -437 4 -795 -114 -430 -316
-735 -535 -810 -164 -57 -364 -16 -481 98 -119 116 -118 270 5 434 170 227
163 484 -18 709 -71 88 -97 134 -116 209 -51 198 68 388 279 445 70 19 231 19
325 -1z"/>
<path d="M3820 2333 c-32 -12 -60 -47 -60 -75 0 -23 14 -43 64 -91 103 -100
130 -179 112 -331 -9 -79 -9 -79 18 -103 55 -47 116 -17 136 69 41 170 -25
376 -154 482 -36 29 -90 59 -99 55 -1 0 -9 -3 -17 -6z"/>
<path d="M3918 1639 c-18 -10 -78 -185 -78 -227 0 -28 42 -72 69 -72 60 0 82
31 120 169 16 57 17 72 6 98 -7 16 -20 33 -30 37 -24 9 -67 7 -87 -5z"/>
</g>
</svg>
